<svg xmlns="http://www.w3.org/2000/svg" xmlns:xlink="http://www.w3.org/1999/xlink" version="1.1" width="612.02" height="612.02" style="" xml:space="preserve"><rect id="backgroundrect" width="100%" height="100%" x="0" y="0" fill="none" stroke="none"/>
















<g class="currentLayer" style=""><title>Layer 1</title><g id="svg_1" class="selected" transform="rotate(-90.30455017089844 306.0092468261719,306.0095520019531) " fill="#e8e8e8" fill-opacity="1">
	<g id="_x35__11_" fill="#e8e8e8" fill-opacity="1">
		<g id="svg_2" fill="#e8e8e8" fill-opacity="1">
			<path d="M596.96,269.674L342.381,15.094c-20.079-20.079-52.644-20.079-72.723,0c-20.079,20.079-20.079,52.644,0,72.723     L487.852,306.01L269.658,524.202c-20.079,20.079-20.079,52.644,0,72.723s52.644,20.079,72.723,0L596.96,342.346     C617.039,322.317,617.039,289.753,596.96,269.674z M290.858,254.258L88.744,41.238c-20.309-21.378-53.204-21.378-73.513,0     s-20.309,56.058,0,77.462l165.371,174.289L15.231,467.278c-20.309,21.379-20.309,56.083,0,77.462s53.204,21.379,73.513,0     L290.858,331.72C311.167,310.342,311.167,275.662,290.858,254.258z" id="svg_3" fill="#e8e8e8" fill-opacity="1"/>
		</g>
	</g>
</g><g id="svg_4">
</g><g id="svg_5">
</g><g id="svg_6">
</g><g id="svg_7">
</g><g id="svg_8">
</g><g id="svg_9">
</g><g id="svg_10">
</g><g id="svg_11">
</g><g id="svg_12">
</g><g id="svg_13">
</g><g id="svg_14">
</g><g id="svg_15">
</g><g id="svg_16">
</g><g id="svg_17">
</g><g id="svg_18">
</g></g></svg>